# xmcd
# 
# Track frame offsets:
#     150
#     21645
#     37124
#     62823
#     82419
#     104132
#     119640
#     143148
#     164028
#     183883
#     197382
#     222299
#     245693
#     255329
# 
# Disc length: 3678
# 
# Revision: 6
# Processed by: cddbd v1.5.2PL0 Copyright (c) Steve Scherf et al.
# Submitted via: fre:ac v1.0.31
# 
DISCID=dd0e5c0e
DTITLE=Jennifer Warnes - The Well
DYEAR=2009
DGENRE=Folk
TTITLE0=The Well
TTITLE1=It's Raining
TTITLE2=Prairie Melancholy
TTITLE3=Too Late Love Comes
TTITLE4=La Luna Brilla
TTITLE5=Fool For The Look(In Your Eyes)
TTITLE6=Invitation To The Blues
TTITLE7=And So It Goes
TTITLE8=The Panther
TTITLE9=You Don't Know Me(Duet With Doyle Bramhall)
TTITLE10=The Nightingale
TTITLE11=Patriot's Dream(Duet With Arlo Guthrie)
TTITLE12=The Well(Reprise)
TTITLE13=Show Me The Light(Duet With Bill Medley)
EXTD=
EXTT0=
EXTT1=
EXTT2=
EXTT3=
EXTT4=
EXTT5=
EXTT6=
EXTT7=
EXTT8=
EXTT9=
EXTT10=
EXTT11=
EXTT12=
EXTT13=
PLAYORDER=
